<svg width="202" height="46" viewBox="0 0 202 46" fill="none" xmlns="http://www.w3.org/2000/svg">
<path d="M16.32 0H0V6.43H16.54V13H0V19.58H16.54V26.15H0V32.72H16.54V39.3H0V45.87H14.13L24.52 39.33H41V32.76H24.47V26.19H41V19.61H24.47V13.04H41V6.47H24.52L16.32 0Z" fill="#F9ED5D"/>
<path d="M16.32 0L24.52 6.47V39.33L16.54 39.3V6.43H0V0H16.32Z" fill="#6CC1BB"/>
<path d="M89.7598 5.93994V38.3999H85.4898V14.1999L74.6998 38.3999H71.6998L60.8598 14.1499V38.3999H56.5898V5.93994H61.1898L73.1998 32.7699L85.2098 5.93994H89.7598Z" fill="white"/>
<path d="M116.61 23.01C117.6 23.79 118.38 24.76 118.96 25.92C119.54 27.08 119.83 28.31 119.83 29.63C119.83 31.29 119.41 32.78 118.56 34.11C117.72 35.44 116.49 36.49 114.88 37.25C113.27 38.01 111.37 38.4 109.18 38.4H96.98V5.70996H108.71C110.93 5.70996 112.82 6.07996 114.39 6.80996C115.95 7.53996 117.13 8.53996 117.91 9.78996C118.69 11.04 119.08 12.45 119.08 14.01C119.08 15.95 118.56 17.55 117.51 18.82C116.46 20.09 115.08 21 113.36 21.56C114.55 21.75 115.63 22.23 116.62 23.01H116.61ZM101.25 19.82H108.43C110.43 19.82 111.98 19.35 113.07 18.41C114.16 17.47 114.71 16.17 114.71 14.52C114.71 12.87 114.16 11.56 113.07 10.63C111.97 9.68996 110.4 9.21996 108.33 9.21996H101.25V19.82ZM113.77 33.38C114.96 32.38 115.55 30.99 115.55 29.21C115.55 27.43 114.92 25.97 113.67 24.92C112.42 23.87 110.75 23.35 108.65 23.35H101.24V34.89H108.79C110.92 34.89 112.57 34.39 113.76 33.39L113.77 33.38Z" fill="white"/>
<path d="M130 5.69971V38.3897H125.73V5.69971H130Z" fill="white"/>
<path d="M143.8 36.5898C141.3 35.1698 139.32 33.1798 137.87 30.6298C136.42 28.0798 135.69 25.2098 135.69 22.0198C135.69 18.8298 136.42 15.9598 137.87 13.4098C139.32 10.8598 141.3 8.87983 143.8 7.44983C146.3 6.02983 149.07 5.31982 152.1 5.31982C155.13 5.31982 157.95 6.02983 160.45 7.44983C162.95 8.86983 164.92 10.8498 166.36 13.3798C167.8 15.9098 168.52 18.7898 168.52 22.0098C168.52 25.2298 167.8 28.1098 166.36 30.6398C164.92 33.1698 162.95 35.1498 160.45 36.5698C157.95 37.9898 155.16 38.6998 152.1 38.6998C149.04 38.6998 146.3 37.9898 143.8 36.5698V36.5898ZM158.27 33.4298C160.1 32.3698 161.54 30.8498 162.59 28.8798C163.64 26.9098 164.16 24.6298 164.16 22.0298C164.16 19.4298 163.64 17.1098 162.59 15.1598C161.54 13.2098 160.11 11.6998 158.3 10.6298C156.49 9.56983 154.42 9.03983 152.11 9.03983C149.8 9.03983 147.73 9.56983 145.92 10.6298C144.11 11.6898 142.68 13.1998 141.63 15.1598C140.58 17.1098 140.06 19.3998 140.06 22.0298C140.06 24.6598 140.58 26.9098 141.63 28.8798C142.68 30.8498 144.12 32.3698 145.95 33.4298C147.78 34.4898 149.84 35.0198 152.12 35.0198C154.4 35.0198 156.46 34.4898 158.29 33.4298H158.27Z" fill="white"/>
<path d="M201.84 7.80983L188.8 38.3898H184.48L197.71 8.22982H179.6V4.56982H201.83V7.80983H201.84Z" fill="white"/>
</svg>
