<svg width="159" height="37" viewBox="0 0 159 37" fill="none" xmlns="http://www.w3.org/2000/svg">
<path d="M12.8561 0H0V5.0584H13.0294V10.2269H0V15.4034H13.0294V20.5719H0V25.7404H13.0294V30.9168H0V36.0854H11.1309L19.3157 30.9404H32.2979V25.7719H19.2763V20.6034H32.2979V15.427H19.2763V10.2584H32.2979V5.08987H19.3157L12.8561 0Z" fill="#F9ED5D"/>
<path d="M12.8561 0L19.3157 5.08987V30.9404L13.0294 30.9168V5.05841H0V0H12.8561Z" fill="#6CC1BB"/>
<path d="M70.7089 4.67294V30.2088H67.3452V11.171L58.8453 30.2088H56.482L47.9428 11.1317V30.2088H44.5791V4.67294H48.2028L57.6637 25.7798L67.1246 4.67294H70.7089Z" fill="white"/>
<path d="M91.8601 18.1019C92.6399 18.7155 93.2544 19.4786 93.7113 20.3912C94.1682 21.3037 94.3966 22.2713 94.3966 23.3098C94.3966 24.6157 94.0658 25.7878 93.3962 26.8341C92.7345 27.8804 91.7655 28.7065 90.4973 29.3043C89.229 29.9022 87.7322 30.209 86.0071 30.209H76.3965V4.49219H85.6368C87.3856 4.49219 88.8745 4.78326 90.1113 5.35755C91.3402 5.93183 92.2697 6.71852 92.8842 7.70188C93.4986 8.68524 93.8058 9.79447 93.8058 11.0217C93.8058 12.5479 93.3962 13.8066 92.569 14.8057C91.7419 15.8048 90.6548 16.5207 89.2999 16.9612C90.2373 17.1107 91.0881 17.4883 91.8679 18.1019H91.8601ZM79.7602 15.5924H85.4162C86.9918 15.5924 88.2128 15.2226 89.0714 14.4831C89.9301 13.7436 90.3633 12.7209 90.3633 11.4229C90.3633 10.1249 89.9301 9.09432 89.0714 8.3627C88.2049 7.62321 86.9681 7.25346 85.3375 7.25346H79.7602V15.5924ZM89.6228 26.2599C90.5603 25.4732 91.0251 24.3797 91.0251 22.9794C91.0251 21.5791 90.5288 20.4305 89.5441 19.6045C88.5594 18.7784 87.2438 18.3694 85.5896 18.3694H79.7523V27.4478H85.6998C87.3778 27.4478 88.6775 27.0544 89.615 26.2677L89.6228 26.2599Z" fill="white"/>
<path d="M102.408 4.4846V30.2014H99.0444V4.4846H102.408Z" fill="white"/>
<path d="M113.279 28.7853C111.309 27.6682 109.75 26.1027 108.607 24.0966C107.465 22.0906 106.89 19.8328 106.89 17.3233C106.89 14.8137 107.465 12.5559 108.607 10.5499C109.75 8.54381 111.309 6.98617 113.279 5.86121C115.248 4.74411 117.43 4.18556 119.817 4.18556C122.204 4.18556 124.426 4.74411 126.395 5.86121C128.364 6.9783 129.916 8.53595 131.051 10.5263C132.185 12.5166 132.752 14.7822 132.752 17.3154C132.752 19.8485 132.185 22.1142 131.051 24.1045C129.916 26.0948 128.364 27.6525 126.395 28.7696C124.426 29.8867 122.228 30.4452 119.817 30.4452C117.407 30.4452 115.248 29.8867 113.279 28.7696V28.7853ZM124.678 26.2994C126.119 25.4655 127.254 24.2697 128.081 22.7199C128.908 21.1702 129.317 19.3765 129.317 17.3311C129.317 15.2857 128.908 13.4606 128.081 11.9266C127.254 10.3925 126.127 9.20463 124.701 8.36287C123.275 7.52898 121.645 7.11204 119.825 7.11204C118.005 7.11204 116.375 7.52898 114.949 8.36287C113.523 9.19676 112.397 10.3847 111.569 11.9266C110.742 13.4606 110.333 15.2621 110.333 17.3311C110.333 19.4001 110.742 21.1702 111.569 22.7199C112.397 24.2697 113.531 25.4655 114.972 26.2994C116.414 27.1333 118.037 27.5502 119.833 27.5502C121.629 27.5502 123.252 27.1333 124.693 26.2994H124.678Z" fill="white"/>
<path d="M159 6.14457L148.728 30.2015H145.325L155.747 6.47498H141.48V3.5957H158.992V6.14457H159Z" fill="white"/>
</svg>
