<svg width="154" height="35" viewBox="0 0 154 35" fill="none" xmlns="http://www.w3.org/2000/svg">
<g clip-path="url(#clip0_538_3465)">
<path d="M8.03962 0.140381H2.6535C1.53896 0.140381 0.63623 1.07621 0.63623 2.2252V10.5853C0.63623 11.6459 1.0649 12.6649 1.81633 13.3876L13.804 24.8827C14.0259 25.0958 14.3789 24.8931 14.3184 24.5863L10.0266 1.85087C9.85012 0.85785 9.01295 0.140381 8.03962 0.140381Z" fill="white"/>
<path d="M13.7336 0H19.6543C20.9857 0 21.7926 1.51812 21.0815 2.67751L15.1457 13.0288C14.8986 13.4603 14.2631 13.3512 14.1673 12.852L12.145 2.01723C11.9382 0.977421 12.7099 0 13.7336 0Z" fill="white"/>
<path d="M23.9006 1.41934L15.6903 14.3598C15.0195 15.4152 14.8027 16.7045 15.0801 17.9315L16.4468 23.926C16.5275 24.4511 17.173 24.6279 17.4957 24.2172L34.1735 3.30139C35.2074 2.05362 34.3551 0.124773 32.7665 0.114375L26.2911 0.0779817C25.3228 0.0727827 24.42 0.57709 23.9006 1.41934Z" fill="white"/>
<path d="M17.2836 28.886L18.1056 33.2116C18.2821 34.137 19.0689 34.8077 19.9817 34.8077H32.9174C33.8656 34.8077 34.6321 34.0122 34.6321 33.0348V10.9544C34.6321 9.00478 32.2669 8.13134 31.0716 9.63387L17.9493 26.1565C17.3441 26.9155 17.102 27.9189 17.2836 28.886Z" fill="white"/>
<path d="M0.5 32.8684V19.1065C0.5 17.5156 2.3105 16.6577 3.47548 17.7027L13.9249 27.0818C14.4747 27.5757 14.8478 28.2464 14.979 28.9899L15.7052 33.0711C15.8867 34.0797 15.1303 35.0104 14.1368 35L2.44162 34.896C1.36743 34.8856 0.5 33.981 0.5 32.8684Z" fill="white"/>
<path d="M60.1707 26.562C59.8429 27.8461 59.3184 28.3192 58.0122 28.3192C56.706 28.3192 56.1815 27.7317 55.8739 26.4944L53.5389 16.5954H53.4935L51.1585 26.4944C50.8761 27.7369 50.3718 28.3192 49.0202 28.3192C47.6686 28.3192 47.1895 27.8461 46.8617 26.562L43.7854 14.2298C43.6997 13.8919 43.6089 13.5331 43.6089 13.1692C43.6089 12.041 44.5015 11.5003 45.3337 11.5003C46.2515 11.5003 46.7962 11.9266 47.013 13.0132L49.1261 23.7909H49.1715L51.6124 12.8781C51.8091 11.9786 52.1571 11.5003 53.4885 11.5003C54.9913 11.5003 55.299 12.2438 55.5158 13.2576L57.8912 23.7857H57.9366L60.0749 13.008C60.2917 11.9266 60.8364 11.4951 61.6887 11.4951C62.541 11.4951 63.4135 12.0358 63.4135 13.164C63.4135 13.5227 63.3277 13.8867 63.2369 14.2246L60.1606 26.5568L60.1707 26.562Z" fill="white"/>
<path d="M69.6316 15.9403C73.4695 15.9403 75.5221 18.6438 75.5221 22.1168C75.5221 25.4078 73.9738 28.3192 69.6316 28.3192C65.2895 28.3192 63.7412 25.4078 63.7412 22.1168C63.7412 18.6438 65.7938 15.9403 69.6316 15.9403ZM69.6316 25.8861C71.5279 25.8861 72.3348 24.1288 72.3348 22.122C72.3348 19.98 71.4825 18.3787 69.6316 18.3787C67.7808 18.3787 66.9285 19.98 66.9285 22.122C66.9285 24.1288 67.7354 25.8861 69.6316 25.8861Z" fill="white"/>
<path d="M82.9808 15.9403C86.8186 15.9403 88.8712 18.6438 88.8712 22.1168C88.8712 25.4078 87.3229 28.3192 82.9808 28.3192C78.6386 28.3192 77.0903 25.4078 77.0903 22.1168C77.0903 18.6438 79.1379 15.9403 82.9808 15.9403ZM82.9808 25.8861C84.877 25.8861 85.6839 24.1288 85.6839 22.122C85.6839 19.98 84.8316 18.3787 82.9808 18.3787C81.1299 18.3787 80.2776 19.98 80.2776 22.122C80.2776 24.1288 81.0845 25.8861 82.9808 25.8861Z" fill="white"/>
<path d="M101.711 26.7647C101.711 27.7785 101.253 28.3192 100.274 28.3192C99.2958 28.3192 98.8368 27.7785 98.8368 26.7647V26.2448H98.7914C98.267 27.6434 96.981 28.3192 95.4327 28.3192C92.7699 28.3192 90.4399 26.3124 90.4399 22.0492C90.4399 18.8934 91.9882 15.9403 95.347 15.9403C96.7641 15.9403 97.8534 16.5486 98.4889 17.6092H98.5342V13.1432C98.5342 12.0618 99.1646 11.4951 100.128 11.4951C101.091 11.4951 101.722 12.0566 101.722 13.1432V26.7647H101.711ZM96.1488 25.7509C98.0047 25.7509 98.7007 24.0352 98.7007 22.1636C98.7007 20.4739 98.0904 18.4878 96.1488 18.5086C94.1215 18.5086 93.6171 20.6298 93.6171 22.1636C93.6171 24.1028 94.4442 25.7041 96.1488 25.7509Z" fill="white"/>
<path d="M119.725 26.562C119.398 27.8461 118.873 28.3192 117.567 28.3192C116.261 28.3192 115.736 27.7317 115.429 26.4944L113.094 16.5954H113.048L110.713 26.4944C110.431 27.7369 109.926 28.3192 108.575 28.3192C107.223 28.3192 106.744 27.8461 106.416 26.562L103.34 14.2298C103.254 13.8919 103.164 13.5331 103.164 13.1692C103.164 12.041 104.056 11.5003 104.888 11.5003C105.806 11.5003 106.351 11.9266 106.568 13.0132L108.681 23.7909H108.726L111.167 12.8781C111.364 11.9786 111.712 11.5003 113.043 11.5003C114.546 11.5003 114.854 12.2438 115.071 13.2576L117.446 23.7857H117.491L119.63 13.008C119.846 11.9266 120.391 11.4951 121.243 11.4951C122.096 11.4951 122.968 12.0358 122.968 13.164C122.968 13.5227 122.882 13.8867 122.792 14.2246L119.715 26.5568L119.725 26.562Z" fill="white"/>
<path d="M126.201 11.4067C127.119 11.4067 127.86 12.171 127.86 13.1224C127.86 14.0739 127.119 14.8381 126.201 14.8381C125.283 14.8381 124.542 14.0739 124.542 13.1224C124.542 12.171 125.283 11.4067 126.201 11.4067ZM124.608 17.5884C124.608 16.7098 124.956 15.9403 126.201 15.9403C127.447 15.9403 127.795 16.7046 127.795 17.5884V26.6763C127.795 27.555 127.447 28.3244 126.201 28.3244C124.956 28.3244 124.608 27.5602 124.608 26.6763V17.5884Z" fill="white"/>
<path d="M134.769 15.9403C137.19 15.9403 139.631 16.9333 139.631 18.4411C139.631 19.2053 139.132 19.8864 138.299 19.8864C137.054 19.8864 137.013 18.3735 135.006 18.3735C133.892 18.3735 133.176 18.6906 133.176 19.3873C133.176 20.1515 133.897 20.3335 134.875 20.5623L136.207 20.8794C138.017 21.3057 140.175 22.096 140.175 24.3992C140.175 27.0819 137.669 28.3244 135.268 28.3244C132.389 28.3244 129.988 26.9935 129.988 25.3714C129.988 24.6487 130.382 23.9936 131.274 23.9936C132.646 23.9936 132.777 26.0213 135.132 26.0213C136.267 26.0213 136.988 25.5014 136.988 24.8255C136.988 23.9884 136.292 23.8533 135.158 23.5621L133.281 23.089C131.426 22.6159 129.988 21.8256 129.988 19.616C129.988 16.9333 132.56 15.9403 134.764 15.9403H134.769Z" fill="white"/>
<path d="M144.911 22.7511C144.911 24.4875 146.001 25.7509 147.856 25.7509C150.257 25.7509 150.257 24.1288 151.543 24.1288C152.305 24.1288 152.849 24.8047 152.849 25.413C152.849 27.399 149.773 28.3244 147.856 28.3244C143.408 28.3244 141.729 25.2102 141.729 22.3507C141.729 18.519 143.973 15.9455 147.751 15.9455C151.528 15.9455 153.51 18.6282 153.51 21.3369C153.51 22.4651 153.182 22.7563 152.113 22.7563H144.916L144.911 22.7511ZM150.494 20.8586C150.318 19.3457 149.228 18.2435 147.811 18.2435C146.217 18.2435 145.259 19.2573 144.911 20.8586H150.494Z" fill="white"/>
</g>
<defs>
<clipPath id="clip0_538_3465">
<rect width="153" height="35" fill="white" transform="translate(0.5)"/>
</clipPath>
</defs>
</svg>
